<svg fill="none" height="36" viewBox="0 0 101 36" width="101" xmlns="http://www.w3.org/2000/svg"><path d="m3.01605 2.29453 19.10455-1.404856c2.3466-.20053 2.9497-.065315 4.4251 1.002656l6.0985 4.2776c1.0059.73566 1.3408.93619 1.3408 1.73717v23.4598c0 1.4702-.5363 2.3399-2.4134 2.4728l-22.18545 1.3373c-1.40867.0664-2.07963-.1341-2.81734-1.0703l-4.49072-5.8142c-.80562-1.0703-1.139369-1.8713-1.139369-2.8075v-20.85285c0-1.20204.536309-2.20469 2.077329-2.33762z" fill="#fff"/><path clip-rule="evenodd" d="m22.1206.889674-19.10455 1.404856c-1.54102.13293-2.077329 1.13558-2.077329 2.33762v20.85285c0 .9362.333749 1.7372 1.139369 2.8075l4.49072 5.8142c.73771.9362 1.40867 1.1367 2.81734 1.0703l22.18545-1.3373c1.8759-.1329 2.4134-1.0026 2.4134-2.4728v-23.4598c0-.75973-.3016-.97859-1.1889-1.62716-.051-.03662-.1021-.07329-.153-.11001l-6.0974-4.2776c-1.4754-1.067971-2.0785-1.203186-4.4251-1.002656zm-12.23267 6.633556c-1.81148.12146-2.22234.14896-3.25122-.6841l-2.61594-2.07177c-.26586-.26814-.13235-.60273.53746-.6692l18.36567-1.3361c1.5422-.13407 2.3455.40106 2.9486.86858l3.1499 2.2723c.1347.06761.4696.46752.0667.46752l-18.9664 1.13672zm-2.11185 23.64307v-19.9155c0-.8697.26815-1.27079 1.07146-1.3384l21.78376-1.26964c.7389-.06646 1.0726.40106 1.0726 1.26964v19.7826c0 .8698-.1346 1.6054-1.3407 1.6719l-20.84585 1.2032c-1.20612.0664-1.74127-.3335-1.74127-1.4038zm20.57762-18.8475c.1335.6016 0 1.2032-.6042 1.2719l-1.0047.1982v14.7041c-.8724.4675-1.6757.7345-2.3466.7345-1.0726 0-1.3408-.3346-2.1441-1.3361l-6.5704-10.2924v9.9578l2.0785.4687s0 1.2032-1.6768 1.2032l-4.6231.2669c-.1346-.2681 0-.9361.4684-1.0691l1.2073-.3334v-13.1663l-1.6757-.1352c-.1346-.6016.2003-1.4702 1.1394-1.5378l4.9603-.3323 6.8362 10.4253v-9.2233l-1.7424-.1993c-.1347-.7368.4016-1.272 1.0714-1.3373z" fill="#000" fill-opacity=".25" fill-rule="evenodd"/><path d="m48.6241 25.1628v-9.064h.1577l6.5646 9.064h2.067v-13.3198h-2.2983v9.0548h-.1577l-6.5646-9.0548h-2.075v13.3187h2.3075zm15.2848.204c3.0326 0 4.8774-1.9755 4.8774-5.2528 0-3.2681-1.854-5.2527-4.8774-5.2527-3.013 0-4.8763 1.9938-4.8763 5.2527 0 3.2773 1.8357 5.2528 4.8763 5.2528zm0-1.9205c-1.6032 0-2.5204-1.2181-2.5204-3.3323 0-2.105.9172-3.3322 2.5204-3.3322 1.5951 0 2.5124 1.2272 2.5124 3.3322 0 2.1142-.9081 3.3323-2.5124 3.3323zm6.9778-10.855v2.5381h-1.6032v1.8277h1.6032v5.5106c0 1.9572.9276 2.7421 3.2546 2.7421.4443 0 .8713-.0458 1.205-.1112v-1.791c-.2785.0275-.4546.0459-.7791.0459-.9633 0-1.3903-.4424-1.3903-1.4393v-4.9571h2.1694v-1.8277h-2.1694v-2.5393zm5.8372 12.5715h2.2902v-10.0987h-2.2902zm1.1405-11.7683c.7596 0 1.3719-.6107 1.3719-1.3762 0-.7666-.6111-1.3854-1.3719-1.3854-.7503 0-1.3718.6188-1.3718 1.3854 0 .7655.6215 1.3751 1.3718 1.3751zm7.4324 11.9723c3.0314 0 4.8762-1.9755 4.8762-5.2528 0-3.2681-1.854-5.2527-4.8762-5.2527-3.0142 0-4.8774 1.9938-4.8774 5.2527 0 3.2773 1.8356 5.2528 4.8774 5.2528zm0-1.9205c-1.6043 0-2.5227-1.2181-2.5227-3.3323 0-2.105.9184-3.3322 2.5227-3.3322 1.5939 0 2.5123 1.2272 2.5123 3.3322 0 2.1142-.9091 3.3323-2.5123 3.3323zm6.2446 1.7165h2.2995v-5.8795c0-1.4863.8631-2.4282 2.2338-2.4282 1.4007 0 2.0486.7758 2.0486 2.317v5.9907h2.3007v-6.535c0-2.4098-1.2338-3.7665-3.4953-3.7665-1.5123 0-2.5319.6921-3.0142 1.8185h-.1576v-1.6157h-2.2155z" fill="#fff"/></svg>