<svg fill="none" height="18" viewBox="0 0 151 18" width="151" xmlns="http://www.w3.org/2000/svg"><g fill="#fff"><path d="m31.3493 12.2875-7.3328-11.507654h-3.9645v16.424654h3.3685v-11.50773l7.3329 11.50773h3.9644v-16.424654h-3.3685z"/><path d="m37.5084 3.94446h5.4673v13.26004h3.498v-13.26004h5.4673v-3.164614h-14.4326z"/><path d="m65.8968 7.34446h-7.6698v-6.53846h-3.498v16.4246h3.498v-6.7215h7.6698v6.7215h3.498v-16.450754h-3.498z"/><path d="m77.1707 3.94446h4.3013c1.7101 0 2.617.62769 2.617 1.83077s-.9069 1.83077-2.617 1.83077h-4.3013zm10.4163 1.85692c0-3.1123-2.2542-4.99538-5.9596-4.99538h-7.9547v16.4246h3.498v-6.4338h3.8867l3.498 6.4338h3.8608l-3.8608-6.9308c1.9434-.75842 3.0316-2.32765 3.0316-4.49842z"/><path d="m98.2754 14.2046c-2.7466 0-4.4308-1.9615-4.4308-5.17845 0-3.26923 1.6842-5.23077 4.4308-5.23077 2.7206 0 4.3786 1.96154 4.3786 5.23077 0 3.21695-1.658 5.17845-4.3786 5.17845zm0-13.7046c-4.6899 0-8.0325 3.53077-8.0325 8.52615 0 4.94305 3.3167 8.47385 8.0325 8.47385 4.6636 0 7.9806-3.5308 7.9806-8.47385 0-4.99538-3.291-8.52615-7.9806-8.52615z"/><path d="m117.32 8.07677h-4.301v-4.13231h4.301c1.71 0 2.617.70616 2.617 2.06616s-.881 2.06615-2.617 2.06615zm.156-7.296924h-7.955v16.424654h3.498v-5.937h4.457c3.705 0 5.959-1.9615 5.959-5.23073s-2.254-5.256924-5.959-5.256924z"/><path d="m147.079 11.6938c-.596 1.5954-1.814 2.5108-3.472 2.5108-2.747 0-4.431-1.9615-4.431-5.17845 0-3.26923 1.684-5.23077 4.431-5.23077 1.658 0 2.85.91539 3.472 2.51077h3.705c-.932-3.53077-3.653-5.80615-7.177-5.80615-4.69 0-8.032 3.53077-8.032 8.52615 0 4.94305 3.316 8.47385 8.032 8.47385 3.55 0 6.271-2.3015 7.177-5.8062z"/><path d="m124.845.779846 6.503 16.424654h3.55l-6.503-16.424654z"/><path d="m6.94098 10.7183 2.22836-5.77999 2.22836 5.77999zm.36275-9.938454-6.503712 16.450754h3.627572l1.32147-3.4523h6.78874l1.3215 3.4523h3.6275l-6.4778-16.450754z"/></g></svg>