<svg fill="none" height="18" viewBox="0 0 139 18" width="139" xmlns="http://www.w3.org/2000/svg"><g fill="#fff"><path d="m49.6522 4.43802h-3.559l4.3004 13.26448h3.831l4.3004-13.26448h-3.559l-2.693 9.99178z"/><path d="m0 0h3.6826v17.7025h-3.6826z"/><path d="m7.31576 0h3.68254v17.7025h-3.68254z"/><path d="m14.631 0h10.8994v2.95042h-7.2168v4.21486h6.7226v2.95042h-6.7226v4.6364h7.2168v2.9504h-10.8994z"/><path d="m27.7792 0h3.4848v17.7025h-3.4848z"/><path d="m33.3648 11.0579c0-4.83476 2.3974-6.9174 6.1294-6.9174s5.8576 2.05784 5.8576 6.9669v.7934h-8.5516c.1236 2.8761.9886 3.843 2.6446 3.843 1.3098 0 2.1254-.7686 2.2738-2.1074h3.4848c-.2224 2.9256-2.6444 4.3636-5.7586 4.3636-3.9544 0-6.08-2.1074-6.08-6.9421zm8.5516-1.46286c-.173-2.42976-1.0134-3.22314-2.4716-3.22314s-2.3728.81818-2.6198 3.22314z"/><path d="m59.1924 11.0579c0-4.83476 2.3974-6.9174 6.1294-6.9174s5.8576 2.05784 5.8576 6.9669v.7934h-8.5516c.1236 2.8761.9886 3.843 2.6446 3.843 1.3098 0 2.1254-.7686 2.2738-2.1074h3.4848c-.2224 2.9256-2.6446 4.3636-5.7586 4.3636-3.9546 0-6.08-2.1074-6.08-6.9421zm8.5514-1.46286c-.173-2.42976-1.0132-3.22314-2.4714-3.22314s-2.3728.81818-2.6198 3.22314z"/><path d="m87.6886 0h3.6826v14.7521h6.9202v2.9504h-10.6028z"/><path clip-rule="evenodd" d="m99.1566 11.0579c0-5.0579 2.3234-6.9174 5.3134-6.9174 1.483 0 2.843.84298 3.386 1.73554v-1.43802h3.559v13.26448h-3.46v-1.562c-.519 1.0413-1.977 1.8595-3.584 1.8595-3.163 0-5.2144-2.0331-5.2144-6.9421zm6.2284-4.3141c1.73 0 2.669 1.31406 2.669 4.3141 0 3-.939 4.3388-2.669 4.3388s-2.719-1.3388-2.719-4.3388c0-3.00004.989-4.3141 2.719-4.3141z" fill-rule="evenodd"/><path clip-rule="evenodd" d="m117.569 16.1405v1.562h-3.46v-17.7025h3.485v5.87604c.593-.91736 1.977-1.73554 3.46-1.73554 2.917 0 5.24 1.8595 5.24 6.9174 0 5.0578-2.274 6.9421-5.314 6.9421-1.606 0-2.916-.8182-3.411-1.8595zm2.497-9.3719c1.73 0 2.718 1.28926 2.718 4.2893 0 3-.988 4.3388-2.718 4.3388s-2.67-1.3388-2.67-4.3388c0-3.00004.94-4.2893 2.67-4.2893z" fill-rule="evenodd"/><path d="m127.728 13.7603h3.484c.05 1.3885.791 2.0579 2.101 2.0579s2.052-.5951 2.052-1.6364c0-.9421-.569-1.2892-1.805-1.5868l-1.062-.2727c-3.016-.7686-4.523-1.5868-4.523-4.0909 0-2.50412 2.323-4.0909 5.289-4.0909s5.215 1.16528 5.314 3.91736h-3.485c-.074-1.21488-.816-1.73554-1.879-1.73554-1.062 0-1.804.52066-1.804 1.5124 0 .91734.593 1.26446 1.631 1.51238l1.088.27274c2.867.71896 4.671 1.43806 4.671 4.11566 0 2.6777-2.373 4.2645-5.586 4.2645-3.485 0-5.412-1.3141-5.486-4.2397z"/><path d="m76.8144 9.89256c0-2.08264.9886-3.22314 2.521-3.22314 1.2604 0 1.9772.79338 1.9772 2.50414v8.52894h3.4848v-9.0744c0-3.07438-1.73-4.4876-4.251-4.4876-1.7054 0-3.114.86776-3.732 2.00826v-1.71074h-3.5342v13.26448h3.5342z"/></g></svg>