<svg fill="none" height="20" viewBox="0 0 96 20" width="96" xmlns="http://www.w3.org/2000/svg"><g fill="#fff"><path d="m35.6313.954529h3.5884l6.1016 11.184071 6.1015-11.184062h3.5108v18.377562h-2.9277v-14.08502l-5.3503 9.75322h-2.7463l-5.3502-9.75322v14.08502h-2.9278z"/><path d="m64.3771 19.6604c-1.356 0-2.5478-.3042-3.5754-.9124-1.0278-.6082-1.8288-1.4505-2.4031-2.5269-.5744-1.0764-.8615-2.3104-.8614-3.7017 0-1.4089.2806-2.65599.842-3.74122.5613-1.085 1.3408-1.93389 2.3383-2.54669.9975-.61241 2.144-.91869 3.4394-.91886 1.2868 0 2.3944.30846 3.3229.9254.9282.6171 1.6428 1.48131 2.1439 2.59263.5008 1.11148.7513 2.41544.7514 3.91184v.8137h-9.9361c.1814 1.1204.6283 2.0021 1.3408 2.6451.7125.6433 1.6128.9649 2.701.9648.8722 0 1.6235-.1312 2.2541-.3938.6303-.2625 1.2219-.6607 1.7748-1.1944l1.5545 1.9296c-1.5461 1.4353-3.4418 2.153-5.6871 2.1529zm2.1375-10.902c-.6133-.63437-1.4164-.95161-2.4095-.95172-.9673 0-1.777.32383-2.4289.9715-.6522.64761-1.0646 1.51832-1.2372 2.61222h7.125c-.0865-1.1202-.4362-1.99752-1.0494-2.632z"/><path d="m73.9249 8.06938h-2.6946v-2.4285h2.6946v-4.01678h2.8241v4.01678h4.0936v2.4285h-4.0936v6.15642c0 1.0238.1727 1.7545.5181 2.1921.3453.4378.9369.6565 1.7748.6564.3712 0 .6864-.0153.9457-.046.2591-.0305.5441-.0721.855-.1247v2.4022c-.3548.104-.7162.183-1.0817.2364-.4182.0623-.8404.093-1.2631.0918-3.0487 0-4.573-1.6889-4.5729-5.0669z"/><path d="m95.5592 19.3321h-2.7723v-1.9165c-.4922.7177-1.1183 1.2712-1.8783 1.6605-.7601.3893-1.6237.584-2.591.5843-1.1917 0-2.2475-.3086-3.1673-.9256-.9198-.6169-1.6431-1.4658-2.1699-2.5465-.5268-1.0808-.7903-2.3169-.7902-3.7083 0-1.4002.2677-2.63854.8032-3.71504.5354-1.07629 1.2759-1.92077 2.2217-2.53346.9456-.6124 2.0316-.91869 3.258-.91886.9241 0 1.7532.18162 2.4873.54485.7242.35497 1.3514.88456 1.8265 1.54233v-1.75893h2.7723zm-2.824-8.8999c-.3025-.77891-.7796-1.39372-1.4315-1.84446-.6522-.45063-1.4057-.67594-2.2606-.67594-1.2092 0-2.1722.41129-2.8888 1.23386-.717.82264-1.0754 1.93404-1.0752 3.33434 0 1.409.3454 2.5248 1.0363 3.3473.6908.8227 1.6279 1.234 2.8112 1.2339.8721 0 1.6494-.2276 2.3317-.6827.6822-.4548 1.1744-1.0674 1.4769-1.8377z"/><path d="m21.4855.333344c-2.3543 0-4.1946 1.796766-5.8606 4.079196-2.2893-2.9537-4.2039-4.079196-6.49507-4.079196-4.67119 0-8.250252 6.159996-8.250252 12.679956 0 4.08 1.947932 6.6534 5.210692 6.6534 2.34831 0 4.03723-1.1219 7.03973-6.44 0 0 1.2515-2.2396 2.1125-3.78237.3017.49362.6195 1.02547.9533 1.59567l1.408 2.4c2.7426 4.6506 4.2707 6.2267 7.0397 6.2267 3.1785 0 4.9475-2.6085 4.9475-6.7734 0-6.82662-3.6598-12.559956-8.1055-12.559956zm-10.6451 11.453356c-2.43427 3.8666-3.27641 4.7333-4.63171 4.7333-1.39478 0-2.22376-1.2408-2.22376-3.4533 0-4.73336 2.32903-9.57336 5.10543-9.57336 1.50344 0 2.75994.87986 4.68444 3.67166-1.8274 2.8403-2.9344 4.6217-2.9344 4.6217zm9.1873-.4868-1.6833-2.84486c-.4556-.75076-.8934-1.44179-1.3134-2.07311 1.5172-2.37289 2.7687-3.55525 4.2571-3.55525 3.0922 0 5.566 4.61334 5.566 10.28002 0 2.16-.6982 3.4133-2.1448 3.4133-1.3866 0-2.0489-.9279-4.6816-5.2201z"/></g></svg>