<svg fill="none" height="24" viewBox="0 0 143 24" width="143" xmlns="http://www.w3.org/2000/svg"><g fill="#fff"><path d="m133.041 12.0137c0-2.42635 1.294-4.07101 3.155-4.07101 2.103 0 3.343 1.53666 3.343 4.07101 0 2.5343-1.24 4.0978-3.343 4.0978-1.86.0002-3.155-1.6713-3.155-4.0978zm2.454 7.0096c1.752 0 3.1-.728 4.044-1.941l.269 1.6715h3.047v-13.48007h-3.047l-.269 1.67151c-.944-1.21326-2.292-1.94101-4.044-1.94101-3.613 0-5.958 3.04646-5.958 7.00967 0 3.9631 2.345 7.0094 5.958 7.0094zm-11.404-15.20615h3.397v-3.315965h-3.397zm0 14.93645h3.397v-13.47987h-3.397zm-7.441.2697c3.451 0 5.608-1.7254 5.608-4.4483 0-2.0219-1.052-3.3159-3.128-3.7205l-3.1-.5663c-1.052-.1887-1.537-.59305-1.537-1.29395 0-.78186.836-1.29401 2.049-1.29401s2.076.56625 2.292 1.37496h3.208c-.243-2.48022-2.346-4.07097-5.446-4.07097-3.343 0-5.419 1.64445-5.419 4.23267 0 2.022 1.267 3.4508 3.586 3.9091l3.1.5662c.701.1349 1.079.5663 1.079 1.1594 0 .9167-.836 1.4559-2.265 1.4559-1.456 0-2.372-.647-2.561-1.7525h-3.37c.161 2.7497 2.426 4.4483 5.904 4.4483zm-16.58-8.5463c.296-1.6176 1.645-2.77676 3.235-2.77676 1.726 0 2.804.97061 3.101 2.77676zm3.235 8.5463c3.397 0 5.878-1.7793 6.093-4.4483h-3.127c-.27 1.0514-1.294 1.7525-2.966 1.7525-1.752 0-3.289-1.4559-3.316-3.4508h9.598c0-.2427.027-.4853.027-.9436 0-4.25971-2.426-6.92867-6.308-6.92867-3.856 0-6.552 2.83086-6.552 7.00967 0 4.1787 2.6958 7.0092 6.551 7.0092zm-20.4356-.2697h3.3969v-7.7913c0-1.8332 1.1594-3.01941 2.7229-3.01941 1.4827 0 2.4802 1.02451 2.4802 2.80381v8.0071h3.3969v-8.4116c0-3.26211-1.8063-5.33817-4.637-5.33817-1.7254 0-3.1274.7009-3.9632 1.88711v-6.39114h-3.3967zm-5.176 0h3.2352v-2.8038h-2.022c-.7009 0-1.2132-.5122-1.2132-1.2133v-6.65896h3.2352v-2.80381h-3.2352v-3.96112h-3.3969v3.96112h-2.2917v2.80381h2.2917v7.27916c0 1.968 1.4288 3.3969 3.3969 3.3969zm-18.9797 0h3.3969v-7.7913c0-1.8332 1.1593-3.01941 2.7228-3.01941 1.4828 0 2.4803 1.02451 2.4803 2.80381v8.0071h3.3969v-8.4116c0-3.26211-1.8064-5.33817-4.637-5.33817-1.7793 0-3.2082.7548-4.044 2.02196l-.2695-1.75246h-3.0464zm-13.2102 4.6911h3.424c1.402 0 2.5882-.8628 3.0194-2.1836l5.284-15.98717h-3.5857l-2.8038 9.30107-2.8038-9.30107h-3.5316l4.5563 13.77637c.2695.7819-.1617 1.6177-1.0784 1.6177h-2.4802zm-6.9016-4.4214c3.4508 0 5.6076-1.7254 5.6076-4.4483 0-2.0219-1.0514-3.3159-3.1274-3.7205l-3.1004-.5663c-1.0513-.1887-1.5366-.59305-1.5366-1.29395 0-.78186.8357-1.29401 2.049-1.29401 1.2132 0 2.0758.56625 2.2916 1.37496h3.2082c-.2427-2.48022-2.3456-4.07097-5.4459-4.07097-3.3431 0-5.4189 1.64445-5.4189 4.23267 0 2.022 1.2671 3.4508 3.5857 3.9091l3.1003.5662c.7009.1349 1.0784.5663 1.0784 1.1594 0 .9167-.8357 1.4559-2.2646 1.4559-1.4559 0-2.3724-.647-2.5612-1.7525h-3.37c.1617 2.7497 2.4263 4.4483 5.9042 4.4483z"/><path d="m5.24526 20.5989h14.76244c3.6367 0 5.9534-2.2358 6.3306-5.6571l.7543-7.08491h-5.0916l-.7003 6.46541c-.0809.8621-.6197 1.3468-1.5087 1.3468h-14.06181zm.48493-4.9298.70035-6.46536c.08089-.86213.61967-1.34685 1.50864-1.34685h14.06182l.4852-4.92974h-14.76266c-3.63674 0-5.95344 2.23602-6.33065 5.65712l-.754218 7.08483z"/></g></svg>